<svg xmlns="http://www.w3.org/2000/svg" viewBox="0 0 450 450"><path d="M267.445 426.822a10.2 10.2 0 0 0-9.507-10.173L238.73 314.175h-38.133L181.39 416.652a10.201 10.201 0 0 0-9.44 10.17h30.748l-.005-.005.185.035 16.786-89.553 16.786 89.553.268-.05-.022.02z" fill="#1967d2"/><path fill="#fbbc04" d="M240.184 257.791h-41.039l-9.459 72.328h59.957l-9.459-72.328z"/><rect x="193.014" y="191.514" width="66.833" height="66.833" rx="10.548" transform="rotate(-163.44 226.431 224.93)" fill="#d2e3fc"/><ellipse cx="294.293" cy="288.639" rx="2.483" ry="4.393" transform="rotate(-24.305 294.294 288.64)" fill="#cf8d66"/><ellipse cx="156.506" cy="250.715" rx="2.483" ry="4.393" transform="rotate(-54.322 156.506 250.715)" fill="#cf8d66"/><rect x="158.516" y="220.726" width="66.833" height="66.833" rx="10.548" transform="rotate(-163.441 191.933 254.145)" fill="#34a853"/><rect x="232.003" y="164.865" width="66.833" height="66.833" rx="10.548" transform="rotate(169.956 265.42 198.281)" fill="#fbbc04"/><circle cx="263.764" cy="270.275" r="33.417" fill="#174ea6"/><path d="M219.077 198.002l8.34-28.046a9.531 9.531 0 0 0-2.215-9.27l-20.12-21.246a9.531 9.531 0 0 0-9.135-2.716l-28.459 6.8a9.531 9.531 0 0 0-6.92 6.554l-8.34 28.046a9.531 9.531 0 0 0 2.215 9.27l20.12 21.246a9.531 9.531 0 0 0 9.135 2.717l28.459-6.801a9.531 9.531 0 0 0 6.92-6.554z" fill="#ffa1b2"/><circle cx="154.058" cy="257.791" r="6.533" fill="#cf8d66"/><path d="M296.58 292.29s-3.913-3.105-4.48-3.544a6.58 6.58 0 1 0 1.74 8.27l.005.003z" fill="#cf8d66"/></svg>